<?xml version="1.0" encoding="utf-8"?>

<svg version="1.1" xmlns="http://www.w3.org/2000/svg" xmlns:xlink="http://www.w3.org/1999/xlink" id="avatar" xml:space="preserve"
x="0px" y="0px" width="100%" height="100%" viewBox="0 0 72.04 56.256">


	<clipPath id="clipper">
      <rect x="0" y="0" width="72.04" height="56.256"></rect>
  </clipPath>


	<style>

		/* 	setting stop-color or color to a fixed value works. using currentColor does not.
				this is probably because currentColor is not in scope in the gradient as a resource.

				#SVGID_1_, #SVGID_2_, #SVGID_3_ { color: #734098; }
		*/

		.stop-color { stop-color: #734098; }
		.fill { fill: #734098; }

	</style>

	<!-- right inner ring -->
	<linearGradient id="SVGID_1_"
		gradientUnits="userSpaceOnUse" x1="-310.8488" y1="143.8092" x2="-267.1498" y2="143.8092"
		gradientTransform="matrix(1 0 0 1 335.8417 -89.9885)">

		<stop offset="0.1129" class="stop-color" />
		<stop offset="0.5742" class="stop-color" style="stop-opacity:0"/>
		<stop offset="0.8314" class="stop-color" style="stop-opacity:0.0869"/>
		<stop offset="0.8701" class="stop-color" style="stop-opacity:0.1"/>
		<stop offset="1" class="stop-color" style="stop-opacity:0.7"/>

	</linearGradient>

	<path  style="fill:url(#SVGID_1_);" d="M34.579,84.007c-1.64,0-3.146-0.382-4.482-1.152c-3.94-2.275-5.691-7.541-4.93-14.828
		c0.707-6.767,3.496-14.649,7.853-22.195c4.356-7.546,9.789-13.903,15.295-17.899c5.93-4.303,11.366-5.421,15.307-3.145
		c7.761,4.48,6.477,20.744-2.923,37.024c-4.356,7.546-9.789,13.902-15.296,17.898C41.483,82.555,37.778,84.007,34.579,84.007z
		 M59.129,27.359c-2.383,0-5.382,1.226-8.629,3.583c-5.094,3.696-10.158,9.645-14.259,16.749l0,0
		c-4.102,7.104-6.721,14.464-7.375,20.723c-0.591,5.656,0.535,9.746,3.09,11.221c2.556,1.477,6.66,0.405,11.263-2.934
		c5.094-3.696,10.157-9.645,14.259-16.748c7.049-12.209,10.542-28.332,4.284-31.944C61.009,27.573,60.123,27.359,59.129,27.359z"/>

	<!-- left inner ring -->
	<linearGradient id="SVGID_2_"
		gradientUnits="userSpaceOnUse" x1="6385.1675" y1="350.8209" x2="6360.7354" y2="393.1382"
		gradientTransform="matrix(-1 0 0 -1 6419.811 425.8006)">

		<stop offset="0.5823" class="stop-color" />
		<stop offset="0.9427" class="stop-color" style="stop-opacity:0"/>

	</linearGradient>

	<path  style="fill:url(#SVGID_2_);" d="M55.277,80.804c-6.602,0-13.841-1.902-20.634-5.824c-7.657-4.421-13.64-10.728-16.846-17.759
		c-3.304-7.245-3.293-14.405,0.03-20.161c3.324-5.757,9.519-9.346,17.445-10.107c7.692-0.738,16.146,1.289,23.803,5.709
		c16.009,9.243,23.552,26.254,16.816,37.921C72.013,77.3,64.233,80.803,55.277,80.804z M38.43,30.522
		c-0.945,0-1.88,0.043-2.803,0.132c-6.696,0.643-11.874,3.578-14.58,8.265c-2.706,4.687-2.659,10.638,0.132,16.759
		c2.888,6.333,8.33,12.044,15.322,16.081l0,0c14.232,8.218,30.457,6.855,36.168-3.035c5.711-9.892-1.223-24.624-15.455-32.841
		C51.154,32.383,44.586,30.522,38.43,30.522z"/>

	<!-- outer circle -->
	<linearGradient id="SVGID_3_"
		gradientUnits="userSpaceOnUse" x1="-167.2317" y1="1474.0338" x2="-216.148" y2="1428.1449"
		gradientTransform="matrix(0.9959 -0.0901 0.0901 0.9959 106.9822 -1408.636)">

		<stop offset="0.5823" class="stop-color" />
		<stop offset="0.9427" class="stop-color" style="stop-opacity:0"/>

	</linearGradient>

	<path  style="fill:url(#SVGID_3_);" d="M46.841,87.362c-4.796,0-9.576-1.043-14.059-3.117c-8.126-3.76-14.303-10.459-17.391-18.865
		c-3.087-8.405-2.717-17.509,1.043-25.636S26.895,25.441,35.3,22.354c8.405-3.086,17.51-2.717,25.637,1.043
		c16.775,7.762,24.109,27.726,16.348,44.501v0.001c-3.761,8.126-10.46,14.303-18.865,17.39
		C54.65,86.673,50.74,87.362,46.841,87.362z M46.876,24c-3.467,0-6.942,0.613-10.293,1.844c-7.473,2.745-13.43,8.236-16.772,15.461
		c-3.343,7.225-3.672,15.319-0.927,22.792c2.745,7.474,8.236,13.43,15.461,16.772c14.914,6.901,32.664,0.38,39.565-14.534
		c6.9-14.915,0.38-32.664-14.535-39.564C55.389,24.928,51.139,24,46.876,24z"/>

	<!-- thought rays -->

	<path class="fill" d="M10.776,34.849c-0.315,0-0.635-0.08-0.928-0.249L0.93,29.451c-0.889-0.514-1.194-1.651-0.681-2.54
		c0.515-0.889,1.65-1.193,2.54-0.681l8.918,5.149c0.889,0.514,1.194,1.651,0.681,2.54C12.044,34.515,11.419,34.849,10.776,34.849z" />
	<path class="fill" d="M26.03,19.599c-0.643,0-1.268-0.333-1.612-0.93l-5.149-8.918c-0.513-0.889-0.208-2.026,0.681-2.54
		c0.893-0.514,2.027-0.208,2.54,0.681l5.149,8.918c0.513,0.889,0.208,2.026-0.681,2.54C26.665,19.519,26.345,19.599,26.03,19.599z" />
	<path class="fill" d="M46.86,14.017c-1.027,0-1.859-0.833-1.859-1.859V1.859C45,0.833,45.833,0,46.86,0s1.859,0.833,1.859,1.859v10.298
		C48.718,13.185,47.886,14.017,46.86,14.017z" />
	<path class="fill" d="M67.689,19.599c-0.315,0-0.635-0.08-0.928-0.249c-0.89-0.514-1.194-1.651-0.681-2.54l5.149-8.918
		c0.514-0.889,1.651-1.193,2.54-0.681c0.89,0.514,1.194,1.651,0.681,2.54l-5.149,8.918C68.957,19.266,68.332,19.599,67.689,19.599z" />
	<path class="fill" d="M82.943,34.849c-0.643,0-1.268-0.333-1.612-0.93c-0.514-0.889-0.209-2.026,0.681-2.54l8.918-5.149
		c0.891-0.513,2.026-0.208,2.54,0.681c0.514,0.889,0.209,2.026-0.681,2.54L83.871,34.6C83.578,34.769,83.259,34.849,82.943,34.849z" />


	<!-- solid D ring -->
	<path  class="fill" d="M46.805,87.36c-5.81,0-11.542-1.523-16.708-4.506l0,0c-3.94-2.275-5.691-7.541-4.93-14.828
		c0.707-6.767,3.496-14.649,7.853-22.195c4.357-7.546,9.789-13.903,15.295-17.899c5.93-4.303,11.366-5.421,15.307-3.145
		c16.01,9.243,21.515,29.787,12.271,45.797c-4.478,7.755-11.707,13.303-20.356,15.62C52.648,86.978,49.718,87.36,46.805,87.36z
		 M59.129,27.359c-2.383,0-5.382,1.226-8.629,3.583c-5.094,3.696-10.158,9.645-14.259,16.749
		c-4.102,7.104-6.721,14.464-7.375,20.723c-0.591,5.656,0.536,9.746,3.091,11.221l0,0c14.234,8.219,32.499,3.323,40.716-10.909
		c8.218-14.233,3.323-32.499-10.91-40.717C61.01,27.573,60.123,27.359,59.129,27.359z"/>

</svg>

