<?xml version="1.0" standalone="no"?><!DOCTYPE svg PUBLIC "-//W3C//DTD SVG 1.1//EN" "http://www.w3.org/Graphics/SVG/1.1/DTD/svg11.dtd"><svg t="1498639779107" class="icon" style="" viewBox="0 0 1024 1024" version="1.1" xmlns="http://www.w3.org/2000/svg" p-id="4576" xmlns:xlink="http://www.w3.org/1999/xlink" width="32" height="32"><defs><style type="text/css"></style></defs><path d="M843.903737 298.978349c-11.95631-11.95631-29.890774-11.95631-41.895179 0-11.957333 12.05864-11.957333 29.940916 0 41.897226 41.895179 41.794895 68.772316 101.676727 68.772316 170.449044 0 68.772316-26.877137 125.589346-68.772316 170.347736-11.957333 11.957333-11.957333 29.941939 0 41.895179 12.004405 11.958356 29.939893 11.958356 41.895179 0 53.801347-53.850465 86.656639-128.551818 86.656639-212.242915C930.559353 427.53119 897.705084 352.831884 843.903737 298.978349L843.903737 298.978349M843.903737 298.978349" p-id="4577" fill="#2c2c2c"></path><path d="M757.19798 385.736295c-12.006452-11.95631-29.888727-11.95631-41.847084 0-11.955286 11.95631-11.955286 29.838585 0 41.794895 20.949124 20.949124 35.868929 50.889017 35.868929 83.793428 0 32.904411-11.95631 62.745043-35.868929 83.691097-11.955286 11.958356-11.955286 29.838585 0 41.897226 11.958356 11.852956 29.839609 11.852956 41.847084 0 32.852222-32.904411 53.801347-77.764108 53.801347-125.589346C810.999326 463.501426 790.051225 415.57488 757.19798 385.736295L757.19798 385.736295 757.19798 385.736295M757.19798 385.736295" p-id="4578" fill="#2c2c2c"></path><path d="M553.895691 167.464059 332.658937 302.044174l0 418.561911 221.236753 134.478807c41.897226 26.976398 77.763085 6.028297 77.763085-41.796942L631.658775 212.323756C631.658775 161.53707 595.79394 143.552463 553.895691 167.464059L553.895691 167.464059M553.895691 167.464059" p-id="4579" fill="#2c2c2c"></path><path d="M93.439624 391.663284l0 239.222383c0 50.786687 38.881542 89.721441 89.720418 89.721441l89.668229 0L272.82827 302.044174l-89.668229 0C132.321166 302.044174 93.439624 340.875574 93.439624 391.663284L93.439624 391.663284M93.439624 391.663284" p-id="4580" fill="#2c2c2c"></path></svg>