<?xml version="1.0" standalone="no"?><!DOCTYPE svg PUBLIC "-//W3C//DTD SVG 1.1//EN" "http://www.w3.org/Graphics/SVG/1.1/DTD/svg11.dtd"><svg t="1498639702920" class="icon" style="" viewBox="0 0 1024 1024" version="1.1" xmlns="http://www.w3.org/2000/svg" p-id="3807" xmlns:xlink="http://www.w3.org/1999/xlink" width="32" height="32"><defs><style type="text/css"></style></defs><path d="M509.953388 127.942951c-211.651444 0-383.228171 171.576727-383.228171 383.228171s171.576727 383.228171 383.228171 383.228171 383.228171-171.576727 383.228171-383.228171S721.604832 127.942951 509.953388 127.942951zM509.953388 881.029798c-203.939809 0-369.858676-165.917844-369.858676-369.858676S306.013579 141.312446 509.953388 141.312446 879.812063 307.231313 879.812063 511.171122 713.893196 881.029798 509.953388 881.029798z" p-id="3808" fill="#36ab60"></path><path d="M675.900907 523.794627c1.845021 68.572772-24.466228 131.25437-68.612681 186.859805-15.959483 20.101827-35.422767 46.463218-64.288189 21.293979-25.544793-22.274306-7.512091-43.4987 9.475815-63.85226 82.012875-98.256838 81.45108-215.46326-0.556679-313.358871-4.431939-5.290493-8.813736-10.692526-13.789051-15.446807-14.862499-14.20349-21.702278-30.679743-5.582135-46.75793 16.655332-16.61133 34.393321-13.100366 50.16247 4.145413C640.581494 359.964328 678.385495 431.53027 675.900907 523.794627z" p-id="3809" fill="#36ab60"></path><path d="M549.0795 505.105986c0.204661 60.431348-16.58677 103.378485-43.877323 143.067416-12.490475 18.164708-25.832342 36.060287-49.885154 20.759813-24.49795-15.58393-20.005636-36.304857-3.982708-56.586786 28.212552-35.710316 37.186947-76.630285 30.484292-120.953769-4.452405-29.443589-19.550265-54.18611-37.811164-77.255525-12.662391-15.996322-16.060791-33.210379 1.639337-47.478338 19.321044-15.57472 35.763528-7.523347 49.79101 9.630335C528.882506 417.186587 547.496445 463.678458 549.0795 505.105986z" p-id="3810" fill="#36ab60"></path><path d="M421.37191 517.001921c-2.857071 28.327162-6.895037 55.057967-31.18628 74.203002-12.466939 9.825786-24.772196 13.903661-36.999682 3.091408-11.945053-10.562567-12.409634-23.037692-1.208525-36.270065 21.639856-25.563212 22.416546-52.015677 0.771573-78.520331-9.730619-11.915377-13.072737-24.438599-0.24457-36.647665 14.7264-14.014178 27.76639-6.395664 40.248679 3.687996C415.425478 464.862423 416.83457 491.753887 421.37191 517.001921z" p-id="3811" fill="#36ab60"></path></svg>