<?xml version="1.0" standalone="no"?><!DOCTYPE svg PUBLIC "-//W3C//DTD SVG 1.1//EN" "http://www.w3.org/Graphics/SVG/1.1/DTD/svg11.dtd"><svg t="1498639577346" class="icon" style="" viewBox="0 0 1024 1024" version="1.1" xmlns="http://www.w3.org/2000/svg" p-id="2136" xmlns:xlink="http://www.w3.org/1999/xlink" width="32" height="32"><defs><style type="text/css"></style></defs><path d="M835.81 464.567c-22.923-29.853-53.872-53.146-88.637-67.042-2.985-33.31-11.042-65.692-24.109-96.592-16.3-38.545-39.628-73.157-69.337-102.873-61.125-61.139-142.394-94.81-228.838-94.81-43.677 0-86.074 8.562-126.013 25.449-38.562 16.305-73.193 39.637-102.931 69.35-29.744 29.718-53.102 64.329-69.424 102.87-16.91 39.929-25.484 82.322-25.484 126 0 62.647 16.953 122.478 49.027 173.023C178.124 644.166 217.269 680.641 264 706.3v112.178a29.999 29.999 0 0 0 46.338 25.161l145.939-94.761a322.28 322.28 0 0 0 58.896-11.219c31.748 30.698 72.207 49.116 120.654 54.937 0.368 0.346 0.747 0.685 1.137 1.016l94.615 80.36a29.987 29.987 0 0 0 19.427 7.135 30.002 30.002 0 0 0 29.994-30v-94.86c3.538-6.248 16.192-19.945 24.771-29.231 30.908-33.458 73.238-79.279 73.238-134.989 0.001-46.581-14.938-90.655-43.199-127.46zM509.604 676.539a262.103 262.103 0 0 1-65.457 13.144 29.992 29.992 0 0 0-14.218 4.764L324 763.229v-75.271a30 30 0 0 0-17.137-27.103c-91.313-43.339-145.828-130.792-145.828-233.937 0-145.388 118.364-263.669 263.853-263.669 70.415 0 136.616 27.428 186.407 77.231 49.789 49.802 77.21 116.014 77.21 186.438 0 67.069-25.219 130.973-71.01 179.938-28.002 29.943-62.053 52.579-99.507 66.68a29.816 29.816 0 0 0-8.384 3.003z m252.095 9.762C738.071 711.877 721 730.356 721 753.218v33.049l-42.777-36.332c-4.698-8.842-13.709-15.136-24.434-15.878-29.383-2.032-54.22-9.434-75.036-22.429 30.452-16.47 58.356-37.902 82.564-63.789 47.737-51.046 77.252-115.313 85.078-183.951 16.06 9.636 30.348 22.275 41.826 37.222 20.142 26.23 30.788 57.669 30.788 90.917 0.001 32.237-31.777 66.634-57.31 94.274z" p-id="2137" fill="#d81e06"></path><path d="M301.472 349.86l33.649-21.031a970.147 970.147 0 0 0-47.67-60.289l-30.845 18.227c6.528 9.354 16.343 22.915 29.443 40.66 6.528 10.296 11.676 17.766 15.423 22.433zM480.936 476.045h86.928v-32.248h-86.928v-29.443H443.08v29.443h-81.32v32.248h81.32v35.051h-92.536v30.846c-2.804-11.217-5.148-23.835-7.011-37.855-8.412 6.55-18.227 14.503-29.443 23.835V379.303h-71.505v35.051h35.051v117.773c0 14.021-3.746 23.375-11.216 28.041l22.433 29.443c4.666-3.746 10.274-8.894 16.825-15.422 8.412-6.551 20.549-14.963 36.454-25.237 3.724-2.805 6.528-4.667 8.413-5.608v1.402h92.536v53.278h37.855v-53.278h100.949v-33.65H480.936v-35.051z" p-id="2138" fill="#d81e06"></path><path d="M563.658 310.602v-33.65h-210.31V309.2h22.433l-5.608 2.804c14.94 23.375 33.649 43.464 56.083 60.289-33.65 11.217-64.035 18.227-91.134 21.031a546.8 546.8 0 0 1 15.423 33.649c44.866-9.333 82.24-21.031 112.165-35.052 28.961 13.101 64.955 23.835 107.959 32.248 4.666-11.216 8.873-22.893 12.619-35.051-31.787-2.804-59.83-8.413-84.125-16.825 25.237-16.825 46.728-37.374 64.495-61.691z m-102.351 44.866c-21.513-13.079-39.258-28.501-53.278-46.268h113.567c-14.963 17.767-35.052 33.189-60.289 46.268z" p-id="2139" fill="#d81e06"></path></svg>